<?xml version="1.0" standalone="no"?>
<!DOCTYPE svg PUBLIC "-//W3C//DTD SVG 20010904//EN"
 "http://www.w3.org/TR/2001/REC-SVG-20010904/DTD/svg10.dtd">
<svg version="1.0" xmlns="http://www.w3.org/2000/svg"
 width="3200.000000pt" height="3200.000000pt" viewBox="0 0 3200.000000 3200.000000"
 preserveAspectRatio="xMidYMid meet">
<metadata>
Created by potrace 1.14, written by Peter Selinger 2001-2017
</metadata>
<g transform="translate(0.000000,3200.000000) scale(0.100000,-0.100000)"
fill="#000000" stroke="none">
<path d="M1465 19980 c-204 -36 -398 -94 -515 -156 -25 -13 -51 -24 -57 -24
-7 0 -13 -3 -13 -7 0 -5 -23 -19 -50 -32 -28 -14 -50 -28 -50 -32 0 -4 -13
-12 -30 -19 -16 -7 -30 -16 -30 -21 0 -4 -8 -10 -18 -13 -17 -6 -35 -20 -135
-108 -104 -92 -266 -277 -267 -305 0 -7 -4 -13 -8 -13 -5 0 -14 -10 -20 -22
-7 -13 -28 -50 -47 -83 -32 -54 -49 -88 -90 -180 -20 -44 -85 -235 -80 -235 2
0 -1 -15 -6 -32 -12 -40 -17 -64 -23 -109 -3 -19 -5 -34 -6 -34 -7 0 -13 -125
-13 -260 -1 -166 4 -222 23 -315 7 -30 16 -73 20 -95 5 -22 16 -59 24 -82 8
-24 13 -43 10 -43 -2 0 3 -11 12 -25 9 -14 14 -25 11 -25 -17 0 159 -348 193
-380 3 -3 45 -61 94 -130 49 -69 94 -128 100 -132 6 -4 7 -8 3 -8 -5 0 -2 -6
5 -13 7 -8 31 -39 52 -70 22 -32 42 -57 46 -57 4 0 12 -11 18 -24 6 -14 18
-33 26 -43 8 -10 51 -67 96 -128 44 -60 86 -117 93 -125 6 -8 19 -26 28 -40
15 -22 26 -36 69 -87 5 -7 10 -15 10 -17 0 -3 24 -37 52 -75 29 -38 62 -81 73
-97 56 -79 111 -149 117 -152 5 -2 6 -8 2 -13 -3 -5 -1 -9 5 -9 5 0 19 -16 31
-35 12 -20 27 -41 34 -48 7 -6 27 -34 46 -61 33 -48 145 -202 176 -241 8 -11
23 -32 32 -47 9 -16 20 -28 24 -28 4 0 8 -4 8 -10 0 -5 7 -18 15 -27 27 -33
115 -154 115 -158 0 -3 7 -13 15 -22 27 -33 145 -194 145 -199 0 -2 8 -12 18
-23 9 -10 33 -41 52 -69 19 -28 38 -51 43 -52 4 0 7 -4 7 -10 0 -9 22 -40 88
-127 20 -26 34 -45 101 -138 83 -115 85 -118 109 -146 12 -15 22 -30 22 -34 0
-3 7 -13 15 -21 8 -9 36 -46 62 -82 26 -37 56 -79 67 -93 12 -15 29 -37 38
-50 9 -13 59 -81 110 -151 51 -69 100 -136 108 -148 8 -12 22 -30 30 -40 8
-10 22 -28 30 -40 14 -21 80 -110 115 -155 8 -11 54 -74 103 -140 48 -66 104
-143 124 -170 56 -74 55 -72 163 -221 218 -299 376 -452 610 -591 27 -16 209
-107 215 -108 3 -1 32 -11 65 -24 33 -13 65 -24 70 -26 6 -1 17 -5 25 -8 8 -3
29 -9 45 -13 17 -4 32 -8 35 -9 22 -6 76 -18 93 -20 12 -2 31 -6 42 -8 90 -21
366 -29 480 -14 33 5 71 10 85 12 20 2 120 25 175 39 11 3 22 7 120 43 91 34
215 98 300 156 66 44 88 61 114 85 13 12 28 22 34 22 29 0 222 185 302 290 28
36 53 66 58 68 4 2 7 10 7 17 0 8 6 18 13 22 7 4 41 53 77 108 67 102 154 222
174 240 7 6 23 26 36 45 13 19 30 41 37 48 14 14 192 253 233 312 26 37 29 42
60 79 11 13 20 27 20 31 0 4 11 20 25 36 38 43 45 53 45 59 0 5 34 54 63 90
34 43 211 284 219 300 6 11 14 22 18 25 4 3 22 30 41 61 19 30 40 64 46 75 61
96 180 372 170 395 -1 3 3 12 9 20 14 17 53 199 62 284 17 183 -2 439 -43 555
-7 21 -11 41 -8 43 3 3 1 12 -3 19 -5 7 -9 19 -10 26 -2 8 -6 21 -10 30 -4 9
-8 19 -8 22 -5 24 -78 192 -113 260 -73 140 -281 440 -305 440 -5 0 -8 6 -8
14 0 7 -7 19 -15 26 -33 27 -155 218 -155 242 0 16 108 -28 130 -52 6 -8 89
-56 154 -89 115 -60 332 -142 411 -155 17 -2 30 -5 30 -6 0 -3 53 -13 145 -26
70 -10 257 -10 335 -1 255 31 498 124 730 279 180 121 313 248 416 399 24 35
46 66 49 69 13 13 92 168 88 173 -2 1 5 15 15 30 9 15 15 27 13 27 -3 0 4 21
14 46 11 25 22 55 25 67 2 12 13 57 24 99 31 123 41 209 45 386 2 61 -1 112
-6 112 -5 0 -4 8 1 19 6 10 8 20 6 23 -2 2 -7 24 -10 48 -4 38 -11 78 -30 165
-1 6 -7 30 -14 55 -7 25 -15 52 -16 60 -14 66 -134 325 -168 361 -9 10 -17 21
-16 25 1 5 -58 89 -108 152 -35 44 -158 167 -208 207 -28 22 -56 46 -63 53 -8
7 -27 19 -43 27 -16 9 -29 20 -29 25 0 5 -10 12 -23 16 -12 4 -24 9 -27 13
-13 16 -226 122 -252 125 -3 1 -10 4 -14 9 -4 4 -13 7 -20 7 -7 0 -25 5 -41
12 -15 6 -32 10 -37 9 -4 -1 -13 3 -20 8 -6 5 -24 11 -41 14 -16 3 -37 8 -45
11 -8 3 -28 7 -45 10 -16 3 -41 7 -55 11 -76 17 -303 24 -425 12 -91 -9 -111
-13 -275 -52 -32 -8 -158 -54 -210 -77 -30 -14 -59 -25 -64 -25 -5 -1 -12 -5
-15 -10 -3 -5 -19 -14 -34 -21 -32 -14 -192 -118 -218 -141 -9 -9 -48 -43 -86
-76 -113 -98 -281 -308 -326 -407 -6 -16 -15 -28 -19 -28 -5 0 -8 -7 -8 -15 0
-9 -6 -26 -14 -38 -38 -61 -116 -296 -132 -397 -3 -19 -8 -48 -11 -65 -22
-124 -13 -369 22 -577 3 -18 7 -44 9 -58 2 -14 10 -47 16 -75 19 -83 20 -97 1
-90 -36 14 -77 49 -93 81 -20 39 -148 217 -160 222 -5 2 -8 8 -8 14 0 5 -18
31 -40 57 -22 26 -40 51 -40 55 0 4 -9 16 -20 28 -11 12 -32 40 -47 62 -15 23
-49 68 -75 102 -26 34 -45 64 -41 68 3 3 2 6 -4 6 -6 0 -47 51 -91 113 -44 61
-88 121 -96 132 -39 49 -206 276 -206 280 0 3 -8 13 -17 23 -10 11 -27 32 -38
47 -11 16 -44 59 -72 96 -29 37 -53 70 -53 73 0 3 -8 14 -17 25 -10 10 -29 33
-43 51 -81 106 -174 198 -290 288 -30 23 -60 46 -65 50 -26 21 -189 113 -251
142 -115 53 -333 120 -439 135 -187 26 -423 26 -560 0 -138 -26 -334 -84 -362
-107 -7 -6 -13 -7 -13 -3 0 4 -34 -11 -75 -34 -41 -22 -75 -37 -75 -33 0 4 -4
2 -8 -4 -4 -6 -31 -26 -59 -44 -29 -17 -53 -37 -53 -43 0 -5 -3 -7 -6 -4 -4 4
-25 -8 -47 -25 -64 -51 -107 -44 -191 34 -11 10 -23 18 -27 18 -4 0 -31 16
-60 35 -30 19 -58 35 -63 35 -5 0 -17 6 -25 13 -23 19 -178 87 -215 94 -11 2
-25 8 -33 14 -7 6 -13 9 -13 5 0 -4 -12 0 -27 7 -16 7 -35 13 -43 12 -8 -1
-22 2 -30 6 -8 4 -28 9 -45 12 -16 3 -57 11 -90 17 -102 20 -385 20 -500 0z"/>
<path d="M18117 19503 c-1 0 -47 -4 -102 -8 -55 -4 -116 -8 -135 -10 -65 -6
-155 -16 -180 -20 -30 -5 -144 -24 -185 -31 -26 -5 -75 -16 -270 -65 -22 -5
-47 -12 -55 -16 -8 -3 -17 -7 -20 -8 -22 -6 -58 -18 -75 -25 -11 -4 -42 -16
-70 -25 -137 -47 -490 -242 -561 -310 -6 -5 -33 -28 -60 -50 -73 -59 -221
-210 -289 -295 -33 -41 -64 -78 -70 -82 -5 -4 -6 -8 -2 -8 4 0 -5 -16 -20 -37
-52 -67 -92 -137 -172 -298 -194 -392 -196 -550 -8 -666 26 -16 47 -25 47 -21
0 4 4 2 8 -4 4 -6 49 -25 100 -43 52 -18 103 -36 115 -41 12 -5 63 -23 112
-40 50 -17 99 -35 110 -40 11 -5 81 -29 155 -55 74 -26 162 -57 195 -70 33
-12 92 -33 130 -45 39 -12 77 -25 85 -28 30 -10 47 -13 122 -17 45 -3 80 0 83
5 3 6 13 10 22 10 28 0 94 62 126 119 18 31 32 58 33 61 0 3 5 16 11 30 6 14
21 50 33 80 26 66 111 228 137 261 10 13 47 53 83 90 93 93 214 149 383 177
54 9 337 8 402 -1 153 -21 295 -104 345 -203 8 -16 17 -31 20 -34 27 -24 60
-300 37 -300 -5 0 -5 -4 -2 -10 9 -14 -25 -130 -47 -162 -10 -14 -18 -30 -18
-35 -1 -36 -201 -173 -252 -173 -10 0 -18 -4 -18 -8 0 -4 -8 -8 -17 -8 -10 -1
-58 -6 -108 -12 -49 -6 -198 -11 -330 -10 -297 0 -374 -10 -440 -55 -51 -35
-69 -60 -95 -130 -20 -56 -23 -138 -23 -577 0 -529 3 -554 87 -640 66 -68 105
-74 486 -77 405 -3 539 -9 568 -27 5 -3 20 -7 34 -10 49 -9 136 -55 176 -94
39 -38 93 -114 96 -136 1 -6 4 -15 7 -21 4 -5 9 -22 12 -36 31 -127 29 -253
-6 -394 -7 -28 -47 -98 -61 -107 -6 -4 -7 -8 -3 -8 13 0 -64 -72 -108 -101
-38 -24 -139 -67 -178 -75 -10 -2 -26 -5 -35 -8 -65 -19 -369 -28 -462 -13
-25 4 -58 9 -75 11 -16 2 -50 9 -75 16 -25 7 -51 14 -58 16 -24 4 -177 84
-207 106 -39 31 -126 120 -145 148 -8 12 -20 28 -27 35 -17 18 -85 155 -124
250 -73 180 -150 255 -262 257 -51 1 -162 -19 -182 -32 -5 -4 -68 -27 -140
-51 -71 -24 -133 -48 -137 -54 -4 -5 -8 -7 -8 -3 0 4 -15 1 -34 -7 -18 -8 -36
-11 -40 -8 -3 4 -6 1 -6 -5 0 -7 -6 -12 -14 -12 -8 0 -70 -21 -138 -46 -68
-25 -130 -47 -138 -49 -44 -12 -236 -81 -240 -86 -3 -4 -24 -12 -47 -18 -46
-12 -140 -72 -160 -101 -8 -11 -20 -26 -29 -35 -8 -8 -13 -15 -9 -15 3 0 -1
-12 -9 -27 -9 -18 -13 -53 -11 -98 2 -66 21 -164 34 -175 3 -3 12 -23 19 -45
14 -42 25 -68 63 -150 13 -27 22 -53 21 -57 -1 -5 3 -8 8 -8 5 0 9 -3 8 -7 -8
-28 176 -316 285 -448 111 -134 346 -340 462 -405 22 -12 42 -25 45 -29 23
-29 400 -203 467 -215 12 -3 30 -9 41 -15 11 -6 37 -15 58 -20 22 -6 75 -20
119 -31 170 -44 352 -76 550 -95 287 -28 744 -23 995 10 19 2 58 7 85 11 28 3
59 8 70 10 11 3 36 7 55 10 19 3 47 7 63 10 63 10 298 75 377 104 47 17 94 34
104 37 11 4 50 21 88 40 38 18 71 33 73 33 2 0 44 23 92 52 120 70 255 172
342 259 68 68 201 229 201 244 0 3 11 21 24 38 60 82 182 376 201 486 3 19 8
38 10 42 3 4 7 22 10 40 2 19 7 45 10 59 4 14 8 39 10 55 1 17 6 55 11 85 4
30 8 94 8 142 1 49 4 88 8 88 4 0 6 6 3 13 -2 6 -6 68 -9 137 -4 69 -8 139
-10 155 -7 54 -17 110 -22 128 -3 10 -7 30 -9 46 -8 64 -66 231 -118 341 -38
80 -114 208 -140 235 -7 7 -19 23 -27 35 -55 82 -176 199 -325 312 -9 7 -49
33 -130 86 -11 6 -35 20 -52 29 -25 13 -30 19 -22 30 6 7 18 13 25 13 8 0 14
4 14 8 0 4 12 15 28 24 35 21 101 79 171 149 170 169 262 315 356 564 5 11 9
25 10 30 2 6 8 30 15 55 41 150 54 258 54 435 -1 141 -15 321 -30 368 -3 10
-7 31 -9 47 -12 92 -78 289 -141 416 -95 193 -213 346 -387 500 -26 23 -47 39
-47 37 0 -2 -8 3 -17 13 -57 57 -305 196 -453 255 -69 27 -227 79 -260 85 -14
3 -59 13 -100 23 -41 11 -82 19 -90 19 -8 1 -37 6 -65 12 -27 6 -70 12 -95 15
-25 2 -45 4 -45 5 0 3 -55 8 -165 16 -90 6 -488 12 -493 7z"/>
<path d="M23657 19504 c-1 -1 -51 -5 -112 -8 -60 -4 -123 -9 -140 -11 -16 -2
-57 -7 -90 -10 -33 -3 -82 -10 -110 -15 -27 -5 -63 -11 -80 -14 -52 -9 -88
-16 -154 -32 -36 -9 -72 -18 -80 -20 -107 -25 -293 -89 -389 -134 -35 -17 -65
-30 -67 -30 -2 0 -21 -10 -42 -22 -20 -12 -44 -23 -52 -25 -8 -1 -17 -5 -20
-10 -3 -5 -27 -20 -53 -33 -27 -14 -48 -28 -48 -32 0 -5 -7 -8 -15 -8 -8 0
-15 -4 -15 -10 0 -5 -5 -10 -11 -10 -27 0 -240 -178 -333 -279 -23 -25 -48
-52 -56 -61 -9 -8 -29 -34 -45 -55 -17 -22 -32 -42 -35 -45 -3 -3 -9 -12 -15
-21 -5 -9 -23 -36 -40 -60 -37 -56 -60 -95 -83 -139 -9 -19 -20 -37 -23 -40
-28 -26 -167 -396 -183 -490 -3 -14 -5 -25 -6 -25 -2 0 -5 -15 -19 -90 -6 -33
-13 -71 -16 -85 -7 -35 -18 -110 -20 -140 -1 -14 -3 -25 -4 -25 -3 0 -13 -155
-15 -217 0 -32 -5 -58 -9 -58 -5 0 -5 -5 -1 -11 9 -14 8 -184 -1 -198 -3 -6
-2 -11 2 -11 5 0 6 -27 3 -60 -3 -33 -3 -65 1 -71 3 -6 3 -25 0 -42 -4 -18 -4
-49 0 -70 3 -20 2 -40 -2 -43 -5 -3 -7 -10 -3 -15 3 -6 5 -42 4 -82 -2 -86 -2
-78 0 -152 1 -33 1 -64 0 -70 -1 -5 -1 -23 0 -40 1 -16 3 -42 4 -57 1 -16 -1
-28 -5 -28 -3 0 -3 -18 1 -39 4 -22 4 -44 1 -50 -4 -5 -4 -39 -1 -75 3 -37 2
-66 -2 -66 -4 0 -5 -6 -2 -13 8 -21 10 -117 2 -117 -4 0 -5 -6 -2 -14 8 -20
10 -106 3 -106 -4 0 -3 -18 1 -39 4 -22 4 -44 1 -50 -4 -6 -4 -38 -1 -71 3
-34 2 -64 -2 -66 -5 -3 -6 -10 -2 -15 5 -9 8 -92 4 -114 -1 -5 -2 -13 -1 -17
0 -3 3 -89 6 -190 3 -101 7 -199 9 -218 2 -19 7 -69 11 -110 4 -41 9 -78 12
-82 2 -4 6 -29 9 -55 3 -27 21 -109 40 -183 19 -74 36 -142 38 -150 5 -17 43
-124 56 -155 116 -282 264 -504 458 -689 37 -36 85 -78 107 -96 22 -17 48 -37
58 -45 36 -31 121 -88 190 -129 59 -34 218 -116 237 -121 3 -1 19 -8 35 -15
17 -7 35 -15 40 -16 6 -2 57 -20 114 -40 118 -40 247 -75 366 -98 44 -9 91
-18 105 -21 59 -12 235 -31 390 -42 182 -12 608 -5 715 12 17 2 55 7 85 9 30
3 66 7 80 11 14 3 49 8 79 11 30 3 57 7 61 9 3 2 26 6 50 10 25 3 99 20 165
36 148 38 137 35 155 42 8 3 38 12 67 21 28 9 64 21 80 27 15 7 33 13 39 14
43 10 380 176 394 194 3 4 23 18 45 31 22 13 45 28 50 32 6 5 28 22 50 39 124
95 305 273 305 300 0 5 4 9 9 9 4 0 21 19 36 42 15 23 32 47 37 52 45 54 150
255 194 371 26 71 70 219 79 265 3 14 7 36 10 50 34 167 39 237 40 495 0 191
-6 312 -19 381 -2 11 -7 39 -10 64 -3 25 -9 56 -12 70 -3 14 -7 40 -9 58 -2
18 -9 47 -14 65 -6 18 -20 66 -32 107 -12 41 -26 81 -32 88 -5 6 -7 12 -4 12
13 0 -86 218 -124 271 -10 14 -16 29 -12 33 3 3 2 6 -3 6 -5 0 -18 16 -28 35
-11 19 -23 35 -28 35 -4 0 -8 5 -8 11 0 28 -168 207 -278 298 -106 87 -295
198 -427 251 -11 4 -36 15 -55 23 -19 9 -48 19 -65 23 -16 4 -34 10 -40 14 -5
4 -32 13 -60 20 -27 7 -56 17 -62 23 -7 5 -13 7 -13 4 0 -3 -20 0 -45 7 -25 8
-45 12 -45 9 0 -3 -6 0 -13 6 -8 6 -16 9 -18 6 -3 -2 -29 2 -58 10 -30 8 -57
14 -60 13 -3 0 -8 1 -11 2 -3 1 -14 3 -25 5 -11 1 -36 5 -55 8 -19 3 -48 8
-65 11 -16 2 -57 7 -89 11 -33 3 -73 8 -90 10 -253 37 -987 31 -1246 -9 -19
-3 -51 -8 -70 -10 -19 -3 -59 -9 -88 -14 -29 -5 -54 -6 -56 -3 -4 9 1 196 8
266 17 181 69 322 155 425 25 30 51 58 58 63 7 4 19 14 27 22 41 42 225 121
301 131 11 1 20 3 20 4 0 2 53 10 110 16 115 11 372 5 448 -12 12 -3 40 -7 61
-10 22 -3 48 -10 58 -15 10 -5 18 -7 18 -4 0 2 24 -5 53 -16 28 -12 58 -22 65
-23 7 -1 18 -8 24 -14 7 -7 17 -12 23 -12 16 0 117 -70 149 -104 66 -71 95
-112 164 -236 13 -25 44 -73 69 -107 114 -162 214 -175 490 -62 53 21 101 39
107 39 6 0 27 8 46 19 19 10 46 22 60 26 14 4 39 13 55 20 17 7 53 21 80 31
28 10 61 24 75 31 14 7 29 13 33 13 5 0 23 6 40 14 18 8 55 22 82 32 28 10 61
24 75 31 14 7 29 13 34 13 12 0 180 72 186 80 3 4 19 14 35 24 43 25 105 112
106 150 4 85 -2 153 -16 175 -3 6 -8 21 -10 33 -13 67 -143 332 -220 451 -101
153 -160 225 -284 346 -178 175 -348 287 -621 409 -50 22 -239 89 -273 97 -12
2 -40 9 -62 15 -22 6 -51 13 -64 16 -12 2 -51 11 -85 19 -33 8 -74 16 -91 19
-16 2 -61 9 -100 15 -38 6 -92 14 -120 17 -27 3 -63 7 -80 9 -113 13 -637 29
-648 19z m343 -3908 c89 -5 168 -15 210 -26 19 -5 46 -11 60 -14 89 -16 213
-87 282 -160 27 -30 73 -131 88 -195 14 -59 17 -227 6 -276 -4 -16 -9 -43 -12
-59 -20 -106 -131 -240 -244 -294 -62 -29 -175 -65 -250 -77 -149 -26 -463
-23 -597 5 -55 11 -186 52 -193 60 -3 3 -27 16 -53 30 -45 23 -132 99 -167
145 -44 57 -98 208 -104 287 -2 21 -6 41 -9 45 -4 3 -2 14 4 24 5 11 6 19 2
19 -6 0 -10 344 -4 382 1 4 20 13 44 19 164 47 328 72 551 84 55 3 101 6 102
8 3 3 201 -2 284 -7z"/>
<path d="M29227 19504 c-1 -1 -51 -5 -112 -9 -127 -7 -155 -10 -210 -18 -22
-4 -58 -9 -80 -12 -42 -6 -74 -11 -115 -20 -14 -3 -38 -8 -55 -10 -16 -3 -64
-15 -105 -27 -41 -11 -84 -22 -95 -23 -11 -2 -46 -12 -77 -23 -31 -11 -59 -17
-62 -14 -3 3 -6 0 -6 -6 0 -7 -7 -12 -15 -12 -31 0 -366 -148 -385 -171 -3 -3
-21 -14 -40 -25 -19 -10 -37 -21 -40 -24 -3 -3 -28 -20 -56 -38 -28 -18 -61
-40 -72 -50 -11 -9 -33 -26 -48 -37 -151 -110 -365 -355 -465 -531 -66 -117
-148 -294 -164 -354 -1 -3 -4 -12 -8 -20 -8 -22 -49 -153 -52 -170 -2 -8 -11
-46 -20 -85 -10 -38 -19 -83 -20 -100 -2 -16 -6 -39 -8 -50 -5 -19 -11 -62
-22 -155 -3 -25 -8 -95 -10 -157 -2 -62 -6 -116 -8 -121 -3 -4 -2 -14 3 -22 5
-8 5 -21 -1 -31 -6 -11 -5 -20 1 -24 5 -3 6 -15 1 -28 -5 -12 -5 -32 0 -44 5
-13 4 -25 -1 -28 -6 -4 -7 -13 -1 -24 6 -10 6 -23 1 -31 -5 -8 -5 -21 0 -30 5
-9 5 -22 0 -30 -5 -8 -5 -21 0 -30 5 -9 5 -22 0 -30 -4 -7 -4 -24 0 -36 6 -14
5 -26 0 -29 -6 -4 -7 -13 -1 -24 6 -10 6 -23 1 -31 -5 -8 -5 -21 0 -30 5 -9 5
-22 0 -30 -5 -8 -5 -21 0 -30 5 -9 5 -22 0 -30 -4 -7 -4 -24 0 -36 6 -14 5
-26 0 -29 -6 -4 -7 -13 -1 -24 6 -10 6 -23 1 -31 -5 -8 -5 -21 0 -30 5 -9 5
-22 0 -30 -5 -8 -5 -21 0 -30 5 -9 5 -22 0 -30 -4 -7 -4 -24 0 -36 6 -14 5
-26 0 -29 -6 -4 -7 -13 -1 -24 6 -10 6 -23 1 -31 -5 -8 -5 -21 0 -30 5 -9 5
-22 0 -30 -5 -8 -5 -21 0 -30 5 -9 5 -22 0 -30 -4 -7 -4 -24 0 -36 6 -14 5
-26 0 -29 -6 -4 -7 -13 -1 -24 6 -10 6 -23 1 -31 -5 -8 -5 -21 0 -30 4 -8 4
-22 0 -31 -5 -8 -5 -21 0 -29 4 -7 5 -23 0 -35 -5 -12 -4 -28 0 -35 5 -8 4
-22 -1 -31 -5 -11 -5 -20 0 -24 6 -3 6 -17 1 -35 -5 -17 -5 -30 0 -30 5 0 5
-13 0 -30 -5 -19 -5 -30 1 -30 6 0 7 -6 0 -17 -5 -10 -5 -26 0 -40 5 -13 4
-25 -1 -28 -6 -4 -7 -13 -1 -24 6 -10 6 -23 1 -31 -5 -8 -5 -21 0 -30 5 -9 5
-22 0 -30 -5 -8 -5 -21 0 -30 5 -9 5 -22 0 -30 -4 -7 -6 -19 -3 -26 8 -21 9
-114 1 -114 -4 0 -3 -11 2 -25 6 -15 6 -26 -1 -30 -5 -4 -7 -11 -4 -16 4 -5 8
-53 10 -106 2 -53 7 -123 11 -157 4 -34 8 -74 10 -91 1 -16 3 -30 4 -30 1 0 3
-15 6 -33 3 -26 28 -151 39 -197 8 -34 17 -72 21 -85 3 -8 6 -17 6 -20 1 -3
13 -41 28 -85 65 -191 149 -363 243 -498 23 -33 47 -67 52 -76 6 -9 12 -18 15
-21 3 -3 30 -34 60 -70 104 -124 301 -301 388 -350 15 -8 29 -18 30 -22 2 -5
10 -8 18 -8 8 0 14 -3 14 -8 0 -4 21 -19 48 -32 26 -14 49 -27 52 -30 6 -6
157 -80 215 -105 22 -10 54 -23 70 -30 26 -12 59 -23 90 -31 6 -2 37 -13 70
-24 66 -23 242 -69 290 -76 36 -5 70 -12 70 -14 0 -3 87 -16 170 -25 17 -2 55
-6 85 -10 198 -24 660 -24 812 0 13 2 50 6 83 10 32 4 68 9 80 11 11 2 34 6
50 9 17 2 41 7 55 10 14 3 42 7 63 10 21 3 47 10 58 15 10 6 19 9 19 6 0 -3
15 0 33 5 17 6 40 12 50 14 10 2 27 7 37 10 10 3 27 8 37 10 10 2 56 17 103
35 47 17 103 37 125 45 22 8 73 30 113 50 40 19 77 35 81 35 5 0 11 3 13 8 2
4 28 20 58 36 54 29 224 139 246 160 7 6 27 22 45 36 49 38 220 208 271 270
55 67 158 216 158 229 0 5 4 11 9 13 16 6 138 269 175 377 35 99 69 222 80
286 3 17 7 40 10 52 2 11 8 43 12 70 4 26 11 58 15 71 7 17 6 21 -3 16 -7 -4
-8 -3 -4 4 24 39 29 273 29 1342 0 934 -4 1229 -18 1300 -2 12 -7 43 -10 69
-4 41 -11 80 -31 176 -3 17 -7 37 -8 45 -2 8 -6 22 -9 30 -6 16 -26 96 -31
120 -2 8 -6 22 -9 30 -8 19 -37 102 -41 115 -1 6 -9 26 -18 45 -8 19 -26 60
-38 90 -13 30 -26 60 -30 65 -4 6 -24 42 -45 80 -20 39 -44 77 -51 86 -8 8
-14 19 -14 23 0 4 -4 12 -10 19 -5 7 -42 55 -82 107 -104 137 -246 276 -388
379 -30 22 -60 44 -66 49 -5 5 -21 15 -35 22 -13 7 -26 16 -29 19 -15 18 -277
150 -365 184 -73 28 -245 84 -280 92 -11 2 -45 11 -75 19 -30 8 -71 17 -90 21
-19 3 -45 8 -57 11 -45 8 -69 12 -118 18 -27 4 -63 9 -80 12 -94 16 -257 26
-458 29 -103 1 -188 1 -190 -1z m296 -1548 c66 -5 182 -32 242 -57 17 -7 32
-13 35 -14 19 -4 89 -46 99 -59 8 -9 17 -16 22 -16 12 0 109 -97 109 -109 0
-6 5 -11 10 -11 6 0 10 -7 10 -15 0 -8 4 -15 9 -15 7 0 48 -81 56 -110 1 -3 4
-12 8 -20 14 -37 29 -132 32 -207 2 -45 6 -87 10 -93 3 -5 3 -10 -2 -10 -10 0
-9 -152 1 -168 4 -7 4 -17 0 -24 -11 -17 -11 -151 -1 -165 5 -7 6 -13 1 -13
-10 0 -9 -83 1 -99 3 -6 3 -11 -2 -11 -10 0 -9 -152 1 -168 4 -7 4 -17 0 -24
-11 -17 -11 -151 -1 -165 5 -7 6 -13 1 -13 -10 0 -9 -83 1 -99 3 -6 3 -11 -2
-11 -10 0 -9 -152 1 -169 4 -6 4 -17 -1 -24 -10 -15 -10 -158 1 -175 4 -7 4
-12 -1 -12 -10 0 -10 -171 0 -187 4 -7 4 -14 0 -16 -10 -6 -9 -89 1 -105 4 -7
4 -12 -1 -12 -9 0 -10 -171 -1 -186 4 -5 3 -16 -2 -24 -5 -8 -5 -22 1 -32 5
-10 6 -18 2 -18 -4 0 -8 -39 -7 -87 0 -77 -4 -113 -20 -198 -12 -56 -60 -168
-83 -193 -7 -7 -13 -16 -13 -20 0 -26 -177 -176 -220 -187 -3 -1 -18 -8 -35
-15 -16 -7 -32 -14 -35 -15 -103 -31 -95 -29 -153 -39 -27 -4 -59 -10 -70 -12
-36 -8 -229 -7 -277 1 -111 17 -109 17 -177 38 -63 19 -183 78 -183 89 0 4 -6
8 -13 8 -7 0 -41 30 -77 68 -80 82 -138 192 -155 291 -3 19 -9 39 -13 45 -9
16 -9 2272 0 2326 5 25 10 56 13 68 7 42 36 122 46 128 5 3 7 8 5 12 -5 9 49
89 95 140 69 75 216 161 309 179 14 3 30 6 35 7 6 2 21 6 35 9 14 3 52 9 85
12 33 4 61 7 62 8 3 3 135 -1 206 -7z"/>
<path d="M10247 19373 c-2 -1 -23 -3 -47 -4 -25 -1 -54 -6 -65 -10 -11 -4 -29
-11 -40 -15 -11 -4 -22 -8 -25 -8 -33 -7 -114 -89 -115 -115 0 -3 -3 -10 -6
-16 -12 -20 -21 -71 -25 -139 -2 -38 -6 -71 -8 -73 -3 -3 -1 -16 5 -30 5 -13
6 -22 1 -20 -6 5 -8 -91 -2 -118 1 -5 1 -12 0 -15 -5 -14 -4 -70 2 -70 4 0 3
-13 -2 -30 -5 -18 -5 -32 1 -36 5 -3 7 -10 3 -15 -9 -15 -12 -69 -4 -74 6 -3
5 -50 0 -50 -6 0 -4 -57 2 -61 5 -3 5 -10 1 -17 -10 -16 -10 -58 -1 -63 5 -3
5 -10 1 -17 -10 -16 -10 -58 -1 -63 5 -3 5 -10 1 -17 -6 -10 -9 -138 -3 -162
1 -5 1 -12 0 -15 -5 -15 -4 -70 2 -70 4 0 4 -11 -1 -23 -5 -13 -5 -30 -1 -37
5 -8 6 -18 3 -24 -8 -12 -7 -91 1 -104 3 -6 3 -13 -2 -16 -9 -5 -9 -47 1 -62
3 -5 2 -16 -3 -24 -4 -7 -4 -24 1 -37 5 -12 5 -23 1 -23 -7 0 -7 -36 1 -92 2
-16 1 -28 -2 -28 -8 0 -6 -54 3 -68 3 -6 3 -13 -2 -16 -9 -5 -9 -47 1 -63 4
-7 4 -14 -1 -17 -9 -5 -9 -47 1 -63 4 -7 4 -14 0 -16 -10 -6 -8 -151 2 -166 3
-6 2 -11 -2 -11 -8 0 -9 -35 -3 -65 1 -5 1 -12 0 -15 -6 -15 -5 -60 2 -60 4 0
4 -10 0 -22 -7 -21 -8 -69 -2 -93 1 -5 1 -12 0 -15 -5 -14 -4 -70 2 -70 4 0 3
-13 -2 -30 -5 -18 -5 -32 1 -36 5 -3 7 -10 3 -15 -9 -15 -12 -69 -4 -74 6 -3
5 -50 0 -50 -6 0 -4 -57 2 -61 5 -3 5 -10 1 -17 -10 -16 -10 -58 -1 -63 5 -3
5 -10 1 -17 -10 -16 -10 -58 -1 -63 5 -3 5 -10 1 -17 -6 -10 -9 -138 -3 -162
1 -5 1 -12 0 -15 -5 -15 -4 -70 2 -70 4 0 4 -11 -1 -23 -5 -13 -5 -30 -1 -37
5 -8 6 -18 3 -24 -8 -12 -7 -91 1 -104 3 -6 3 -13 -2 -16 -9 -5 -9 -47 1 -62
3 -5 2 -16 -3 -24 -4 -7 -4 -24 1 -37 5 -12 5 -23 1 -23 -7 0 -7 -36 1 -92 2
-16 1 -28 -2 -28 -8 0 -6 -54 3 -68 3 -6 3 -13 -2 -16 -9 -5 -9 -47 1 -63 4
-7 4 -14 -1 -17 -9 -5 -9 -47 1 -63 4 -7 4 -14 0 -16 -10 -6 -8 -151 2 -166 3
-6 2 -11 -2 -11 -8 0 -9 -35 -3 -65 1 -5 1 -12 0 -15 -6 -15 -5 -60 2 -60 4 0
4 -10 0 -22 -7 -21 -8 -69 -2 -93 1 -5 1 -12 0 -15 -5 -14 -4 -70 2 -70 4 0 3
-13 -2 -30 -5 -18 -5 -32 1 -36 5 -3 7 -10 3 -15 -9 -15 -12 -69 -4 -74 6 -3
5 -50 0 -50 -6 0 -4 -57 2 -61 5 -3 5 -10 1 -17 -10 -16 -10 -58 -1 -63 5 -3
5 -10 1 -17 -10 -16 -10 -58 -1 -63 5 -3 5 -10 1 -17 -6 -10 -9 -138 -3 -162
1 -5 1 -12 0 -15 -5 -15 -4 -70 2 -70 4 0 4 -11 -1 -23 -5 -13 -5 -30 -1 -37
5 -8 6 -18 3 -24 -8 -12 -7 -91 1 -104 3 -6 3 -13 -2 -16 -9 -5 -9 -47 1 -62
3 -5 2 -16 -3 -24 -4 -7 -4 -24 1 -37 5 -12 5 -23 1 -23 -7 0 -7 -36 1 -92 2
-16 1 -28 -2 -28 -8 0 -6 -54 3 -68 3 -6 3 -13 -2 -16 -9 -6 -8 -59 3 -75 3
-6 2 -11 -2 -11 -10 0 -9 -53 2 -69 3 -6 2 -11 -4 -11 -6 0 -8 -6 -6 -12 2 -7
6 -41 9 -75 6 -61 41 -173 55 -173 4 0 13 -10 20 -22 20 -38 114 -77 206 -85
78 -6 1185 -10 1185 -3 0 3 16 6 36 8 49 3 126 38 158 71 34 35 75 133 72 172
-1 16 0 29 3 29 4 0 6 404 6 898 l0 897 83 0 c45 0 82 4 82 8 0 5 5 5 11 1 6
-3 43 -8 83 -10 39 -1 87 -6 106 -9 55 -9 163 -46 181 -61 8 -8 19 -14 23 -14
10 0 66 -42 95 -71 94 -96 126 -145 213 -324 27 -55 53 -108 58 -117 6 -10 10
-25 10 -33 0 -8 5 -15 10 -15 6 0 10 -5 10 -10 0 -6 18 -49 41 -96 22 -48 53
-115 69 -149 16 -34 47 -102 70 -150 39 -83 69 -148 127 -275 14 -30 52 -111
85 -180 33 -69 64 -136 69 -148 36 -94 190 -292 227 -292 6 0 12 -3 12 -8 0
-11 111 -61 184 -82 37 -10 67 -19 69 -18 1 0 23 -3 49 -7 27 -4 72 -8 101
-10 30 -1 58 -4 63 -6 8 -4 1113 -3 1124 1 3 1 17 4 32 6 48 8 112 41 142 72
50 54 63 180 27 267 -22 53 -123 250 -269 525 -83 157 -145 274 -191 365 -25
49 -49 94 -53 100 -5 5 -28 48 -52 95 -112 219 -132 255 -141 262 -5 4 -6 8
-1 8 5 0 2 8 -6 18 -17 19 -60 108 -58 118 1 4 -2 10 -8 13 -5 3 -31 49 -59
101 -79 151 -172 299 -210 338 -7 7 -13 17 -13 21 0 4 42 34 93 66 98 64 102
66 211 161 91 79 167 161 233 249 29 39 57 75 61 80 7 9 45 71 79 130 19 33
93 186 93 192 0 3 6 19 14 36 16 36 56 153 61 180 2 9 6 21 9 25 6 10 9 22 50
221 3 13 8 49 12 80 3 31 8 58 9 61 8 14 18 232 17 370 -2 172 -9 271 -27 385
-2 17 -7 44 -9 60 -5 28 -10 54 -21 108 -2 12 -9 40 -15 62 -6 22 -12 47 -14
55 -3 20 -26 100 -36 125 -5 11 -16 40 -25 65 -9 25 -22 56 -28 70 -6 14 -11
27 -12 30 -4 19 -66 138 -106 205 -104 177 -268 364 -419 480 -36 27 -66 53
-68 57 -2 4 -7 8 -12 8 -5 0 -37 19 -72 42 -70 46 -262 144 -348 176 -30 11
-64 23 -75 28 -11 4 -25 8 -32 10 -15 3 -83 24 -103 31 -19 7 -18 7 -114 27
-44 9 -82 18 -85 20 -3 2 -28 6 -56 10 -27 3 -61 8 -75 10 -14 3 -52 8 -85 11
-33 4 -78 9 -100 12 -38 4 -2814 11 -2818 6z m2487 -1547 c25 -4 49 -7 53 -8
5 0 23 -6 41 -13 17 -8 32 -12 32 -9 0 13 123 -60 167 -100 78 -70 133 -170
160 -291 9 -41 10 -217 1 -272 -9 -57 -45 -173 -57 -183 -3 -3 -15 -22 -25
-43 -29 -57 -130 -145 -204 -178 -64 -29 -80 -34 -162 -49 -25 -5 -277 -9
-560 -9 l-515 -1 0 577 0 578 30 5 c45 7 987 3 1039 -4z"/>
</g>
</svg>
