<svg width="329" xmlns="http://www.w3.org/2000/svg" xmlns:xlink="http://www.w3.org/1999/xlink" height="139.5" viewBox="0 0 329 139.5" class="css-1j8o68f"><defs id="SvgjsDefs3419"></defs><g id="SvgjsG3420" featurekey="symbolGroupContainer" transform="matrix(0.5578348694386732,0,0,0.5578348694386732,-0.0005580604343806918,0)" fill="#0c4dc4"><path xmlns="http://www.w3.org/2000/svg" d="M125.64 7.519c.819-.613 1.999-2.357 4.883-5.242-2.885 2.885-4.629 4.064-5.242 4.883.145-1.013-.254-3.08-.254-7.16 0 4.08-.399 6.147-.253 7.16-.614-.819-2.358-1.999-5.242-4.883 2.885 2.885 4.064 4.628 4.884 5.242-1.013-.145-3.08.254-7.16.253 4.08 0 6.147.399 7.16.254-.819.613-1.999 2.357-4.884 5.242 2.885-2.885 4.629-4.064 5.242-4.883-.145 1.013.254 3.08.254 7.16 0-4.08.399-6.147.254-7.16.613.819 2.357 1.999 5.242 4.883-2.885-2.885-4.064-4.628-4.883-5.242 1.013.146 3.08-.254 7.16-.253-4.081-.001-6.148-.4-7.161-.254zM109.864 5.209l-1.48 2.563 1.48 2.563h2.96l1.48-2.563-1.48-2.563zM137.249 5.209l-1.48 2.563 1.48 2.563h2.96l1.48-2.563-1.48-2.563zM132.8 242.301c-4.08 0-6.147-.399-7.16-.254.819-.613 1.999-2.357 4.883-5.242-2.885 2.885-4.629 4.064-5.242 4.883.145-1.013-.254-3.08-.254-7.16 0 4.08-.399 6.147-.253 7.16-.614-.819-2.358-1.999-5.242-4.883 2.885 2.885 4.065 4.629 4.884 5.242-1.013-.145-3.08.254-7.16.254 4.08 0 6.147.399 7.16.254-.819.614-1.999 2.357-4.884 5.242 2.885-2.885 4.629-4.064 5.242-4.883-.145 1.013.254 3.08.254 7.16 0-4.08.399-6.147.254-7.16.613.819 2.357 1.999 5.242 4.883-2.885-2.885-4.064-4.628-4.883-5.242 1.012.145 3.079-.254 7.159-.254zM109.864 239.737l-1.48 2.564 1.48 2.563h2.96l1.48-2.563-1.48-2.564zM137.249 239.737l-1.48 2.564 1.48 2.563h2.96l1.48-2.563-1.48-2.564zM242.913 125.282c1.013.145 3.08-.254 7.16-.254-4.08 0-6.147-.399-7.16-.253.819-.614 1.999-2.358 4.883-5.242-2.885 2.885-4.629 4.064-5.242 4.884.145-1.013-.254-3.08-.254-7.16 0 4.08-.399 6.147-.254 7.16-.614-.819-2.357-1.999-5.242-4.883 2.885 2.885 4.064 4.629 4.883 5.242-1.013-.145-3.08.254-7.16.254 4.08 0 6.147.399 7.16.253-.819.614-1.998 2.357-4.883 5.242 2.885-2.885 4.628-4.064 5.242-4.883-.145 1.013.254 3.08.253 7.16 0-4.08.399-6.147.254-7.16.613.819 2.357 1.999 5.242 4.883-2.883-2.886-4.063-4.63-4.882-5.243zM239.737 112.824l2.564 1.48 2.563-1.48v-2.96l-2.563-1.48-2.564 1.48zM239.737 137.249v2.96l2.564 1.48 2.563-1.48v-2.96l-2.563-1.48zM2.277 130.524c2.884-2.885 4.628-4.064 5.242-4.883-.145 1.013.254 3.08.254 7.16 0-4.08.399-6.147.254-7.16.613.819 2.357 1.999 5.242 4.884-2.885-2.885-4.064-4.629-4.883-5.242 1.013.145 3.08-.254 7.16-.254-4.079 0-6.147-.399-7.16-.253.819-.614 1.998-2.358 4.883-5.242-2.885 2.885-4.629 4.065-5.242 4.884.146-1.013-.253-3.08-.253-7.16 0 4.079-.399 6.147-.254 7.16-.613-.819-2.357-1.999-5.242-4.883 2.885 2.885 4.064 4.629 4.883 5.242-1.013-.145-3.08.254-7.16.254 4.08 0 6.147.399 7.16.253-.82.611-2 2.355-4.884 5.24zm5.495-5.496zm0 0zm0 0zM10.336 112.824v-2.96l-2.564-1.48-2.563 1.48v2.96l2.563 1.48zM10.336 137.249l-2.564-1.48-2.563 1.48v2.96l2.563 1.48 2.564-1.48zM207.336 41.858c-1.013-.145-3.08.254-7.16.254 4.08 0 6.147.399 7.16.254-.819.613-1.999 2.357-4.884 5.242 2.885-2.885 4.629-4.065 5.242-4.883-.145 1.013.254 3.08.254 7.16 0-4.08.399-6.147.253-7.16.613.819 2.357 1.999 5.242 4.883-2.885-2.885-4.064-4.629-4.883-5.242 1.013.146 3.08-.254 7.16-.253-4.079 0-6.147-.399-7.16-.254.819-.613 1.999-2.358 4.883-5.242-2.885 2.885-4.629 4.064-5.242 4.884.145-1.013-.254-3.08-.254-7.16 0 4.08-.399 6.147-.253 7.16-.614-.819-2.357-1.999-5.242-4.884 2.885 2.884 4.065 4.628 4.884 5.241zm.613.254zm0 0zm0 0zM200.365 34.529l.766-2.859-2.092-2.093-2.859.766-.766 2.859 2.093 2.093zM214.778 52.566l2.093 2.093 2.859-.766.766-2.859-2.093-2.093-2.859.767zM42.725 208.202c1.013.145 3.08-.254 7.16-.253-4.08 0-6.147-.399-7.16-.254.819-.613 1.999-2.357 4.883-5.242-2.885 2.885-4.629 4.065-5.242 4.884.145-1.013-.254-3.08-.254-7.16 0 4.08-.399 6.147-.254 7.16-.613-.819-2.357-1.999-5.242-4.884 2.885 2.885 4.064 4.629 4.883 5.242-1.013-.145-3.08.254-7.16.254 4.08 0 6.147.399 7.16.254-.819.613-1.999 2.357-4.883 5.242 2.885-2.885 4.629-4.064 5.242-4.884-.145 1.013.254 3.08.254 7.16 0-4.08.399-6.147.254-7.16.613.819 2.357 1.999 5.242 4.884-2.885-2.885-4.064-4.629-4.883-5.243zM35.295 197.507l-2.093-2.093-2.859.766-.766 2.859 2.093 2.093 2.859-.766zM49.707 215.544l-.766 2.859 2.093 2.093 2.859-.766.766-2.859-2.093-2.093zM215.733 207.949c-4.08 0-6.147-.399-7.16-.254.819-.613 1.999-2.357 4.884-5.242-2.885 2.885-4.629 4.064-5.242 4.883.145-1.013-.254-3.08-.253-7.16 0 4.08-.399 6.147-.254 7.16-.613-.819-2.357-1.998-5.242-4.883 2.885 2.885 4.064 4.629 4.883 5.242-1.013-.145-3.08.254-7.16.254 4.08 0 6.147.399 7.16.253-.819.613-1.999 2.357-4.883 5.242 2.885-2.885 4.629-4.064 5.242-4.883-.145 1.013.254 3.08.254 7.16 0-4.079.399-6.147.254-7.16.614.819 2.358 1.999 5.242 4.883-2.885-2.885-4.065-4.629-4.884-5.242 1.012.146 3.079-.253 7.159-.253zm-7.772 0zm0 0zm0 0zM216.871 195.414l-2.093 2.093.766 2.858 2.859.767 2.093-2.093-.766-2.859zM197.507 214.778l-2.093 2.093.766 2.859 2.859.766 2.093-2.093-.767-2.859zM34.352 42.112c4.08 0 6.147.399 7.16.254-.819.613-1.999 2.357-4.883 5.242 2.885-2.885 4.629-4.064 5.242-4.883-.145 1.013.254 3.08.254 7.16 0-4.08.399-6.147.254-7.16.613.819 2.357 1.999 5.242 4.883-2.885-2.885-4.065-4.629-4.884-5.242 1.013.145 3.08-.254 7.16-.254-4.08 0-6.147-.399-7.16-.253.819-.613 1.999-2.357 4.884-5.242-2.885 2.885-4.629 4.064-5.242 4.883.145-1.013-.254-3.08-.253-7.16 0 4.08-.399 6.147-.254 7.16-.613-.819-2.357-1.999-5.242-4.883 2.885 2.885 4.064 4.629 4.883 5.242-1.014-.146-3.081.253-7.161.253zM51.034 29.577l-2.093 2.093.766 2.859 2.859.766 2.093-2.093-.766-2.859zM33.202 54.659l2.093-2.093-.766-2.859-2.859-.766-2.093 2.093.766 2.859zM169.432 17.163c-.522.88-.944 2.943-2.505 6.712 1.561-3.769 2.721-5.527 2.974-6.518.253.991 1.413 2.748 2.975 6.518-1.561-3.769-1.984-5.831-2.506-6.712.88.522 2.943.944 6.712 2.505-3.769-1.561-5.526-2.721-6.518-2.974.992-.253 2.749-1.413 6.518-2.974-3.769 1.561-5.832 1.984-6.712 2.506.522-.88.944-2.943 2.505-6.712-1.561 3.769-2.721 5.526-2.974 6.518-.253-.992-1.413-2.749-2.975-6.518 1.561 3.769 1.984 5.832 2.506 6.712-.88-.522-2.943-.945-6.712-2.506 3.769 1.561 5.526 2.721 6.518 2.974-.992.253-2.749 1.413-6.518 2.974 3.77-1.561 5.832-1.983 6.712-2.505zM157.645 14.392l2.348-1.802-.386-2.934-2.735-1.133-2.348 1.802.386 2.935zM182.946 24.872l2.348-1.802-.386-2.935-2.735-1.132-2.348 1.802.386 2.934zM80.625 232.903c.522-.88.944-2.943 2.505-6.712-1.561 3.769-2.721 5.526-2.974 6.518-.253-.991-1.413-2.749-2.975-6.518 1.561 3.769 1.984 5.832 2.506 6.712-.88-.522-2.943-.944-6.712-2.506 3.769 1.561 5.526 2.721 6.518 2.974-.992.253-2.749 1.413-6.518 2.974 3.769-1.561 5.832-1.984 6.712-2.506-.522.88-.944 2.943-2.505 6.712 1.561-3.769 2.721-5.527 2.974-6.518.253.992 1.413 2.749 2.975 6.518-1.561-3.769-1.984-5.831-2.506-6.712.88.522 2.943.944 6.712 2.506-3.769-1.561-5.526-2.721-6.518-2.974.991-.253 2.748-1.413 6.518-2.974-3.769 1.562-5.832 1.985-6.712 2.506zm-.469.469zm0 0zm0 0zm0 0zM67.127 225.201l-2.348 1.802.386 2.935 2.735 1.132 2.348-1.802-.386-2.934zM92.428 235.681l-2.348 1.802.386 2.934 2.735 1.132 2.348-1.801-.387-2.935zM234.042 169.901c.991-.253 2.749-1.413 6.518-2.975-3.769 1.561-5.831 1.984-6.712 2.506.522-.88.945-2.943 2.506-6.712-1.561 3.769-2.721 5.526-2.974 6.518-.253-.991-1.413-2.749-2.974-6.518 1.561 3.769 1.984 5.832 2.505 6.712-.88-.522-2.943-.944-6.712-2.505 3.769 1.561 5.526 2.721 6.518 2.974-.992.253-2.748 1.413-6.518 2.975 3.769-1.561 5.832-1.984 6.712-2.506-.522.88-.944 2.943-2.506 6.712 1.561-3.769 2.721-5.526 2.974-6.518.253.991 1.413 2.749 2.974 6.518-1.561-3.769-1.984-5.832-2.506-6.712.88.522 2.943.944 6.712 2.505-3.769-1.561-5.526-2.721-6.517-2.974zM236.813 154.91l-1.132 2.735 1.801 2.348 2.935-.386 1.133-2.735-1.802-2.348zM226.334 180.211l-1.133 2.735 1.802 2.348 2.935-.386 1.132-2.735-1.802-2.348zM16.038 80.156c-.991.253-2.749 1.413-6.517 2.975 3.769-1.561 5.832-1.984 6.712-2.506-.522.88-.944 2.943-2.506 6.712 1.561-3.769 2.721-5.526 2.974-6.518.253.991 1.413 2.748 2.974 6.518-1.561-3.769-1.984-5.832-2.506-6.712.88.522 2.943.944 6.712 2.505-3.769-1.561-5.527-2.721-6.518-2.974.991-.253 2.749-1.413 6.518-2.975-3.769 1.561-5.832 1.984-6.712 2.506.522-.88.944-2.943 2.506-6.712-1.561 3.769-2.721 5.526-2.974 6.518-.253-.991-1.413-2.749-2.974-6.518 1.561 3.769 1.984 5.832 2.506 6.712-.88-.522-2.943-.944-6.712-2.505 3.768 1.561 5.525 2.721 6.517 2.974zM23.739 69.861l1.133-2.734-1.802-2.348-2.935.386-1.132 2.735 1.801 2.348zM13.26 95.162l1.132-2.734-1.802-2.348-2.934.386-1.133 2.735 1.802 2.348zM233.37 79.488c-.253-.992-1.413-2.749-2.974-6.518 1.561 3.769 1.984 5.832 2.505 6.712-.88-.522-2.943-.944-6.712-2.506 3.769 1.561 5.526 2.721 6.518 2.974-.992.253-2.749 1.413-6.518 2.975 3.769-1.561 5.832-1.984 6.712-2.506-.522.88-.944 2.943-2.505 6.712 1.561-3.769 2.721-5.526 2.974-6.518.253.991 1.413 2.749 2.974 6.518-1.561-3.769-1.984-5.832-2.506-6.712.88.522 2.943.944 6.712 2.506-3.769-1.561-5.526-2.721-6.518-2.974.991-.253 2.749-1.413 6.518-2.975-3.769 1.561-5.832 1.984-6.712 2.506.522-.88.944-2.943 2.505-6.712-1.56 3.769-2.72 5.527-2.973 6.518zm0 .663zm0 0zm0 0zm0 0zM229.266 70.243l1.801-2.348-1.132-2.735-2.935-.386-1.801 2.348 1.132 2.735zM237.481 90.075l-1.802 2.348 1.133 2.734 2.934.387 1.802-2.349-1.133-2.734zM16.696 170.569c.253.992 1.413 2.749 2.974 6.518-1.561-3.769-1.984-5.832-2.506-6.712.88.522 2.943.944 6.712 2.506-3.769-1.561-5.526-2.721-6.518-2.974.992-.253 2.749-1.413 6.517-2.975-3.769 1.561-5.831 1.984-6.712 2.506.522-.88.944-2.943 2.505-6.712-1.561 3.769-2.721 5.527-2.974 6.518-.253-.991-1.413-2.749-2.974-6.518 1.561 3.769 1.983 5.832 2.505 6.712-.88-.522-2.943-.944-6.712-2.506 3.769 1.561 5.527 2.721 6.518 2.974-.991.253-2.748 1.413-6.518 2.975 3.769-1.561 5.832-1.984 6.712-2.506-.522.88-.944 2.943-2.505 6.712 1.563-3.769 2.723-5.527 2.976-6.518zM12.592 159.998l1.802-2.348-1.133-2.734-2.934-.387-1.802 2.349 1.133 2.734zM20.807 179.83l-1.802 2.348 1.133 2.734 2.934.387 1.802-2.349-1.133-2.734zM170.585 233.37c.992-.253 2.749-1.413 6.518-2.974-3.769 1.561-5.832 1.984-6.712 2.505.522-.88.944-2.943 2.506-6.712-1.561 3.769-2.721 5.527-2.975 6.518-.253-.991-1.413-2.749-2.975-6.518 1.562 3.769 1.984 5.832 2.506 6.712-.88-.522-2.943-.944-6.712-2.505 3.769 1.561 5.526 2.721 6.518 2.974-.991.253-2.748 1.413-6.517 2.974 3.769-1.561 5.832-1.984 6.712-2.506-.522.88-.944 2.943-2.506 6.712 1.561-3.769 2.721-5.526 2.974-6.518.254.992 1.413 2.749 2.975 6.517-1.561-3.769-1.984-5.831-2.506-6.712.88.522 2.943.944 6.712 2.505-3.77-1.559-5.527-2.719-6.518-2.972zm-.663 0zm0 0zm0 0zm0 0zM180.216 226.331l-.386 2.935 2.348 1.802 2.734-1.133.387-2.935-2.348-1.801zM154.916 236.812l-.387 2.934 2.349 1.802 2.734-1.133.386-2.934-2.348-1.802zM87.348 13.722c-3.769 1.561-5.832 1.984-6.712 2.506.522-.88.944-2.943 2.506-6.712-1.561 3.769-2.721 5.526-2.974 6.518-.253-.991-1.413-2.749-2.975-6.518 1.562 3.769 1.984 5.832 2.506 6.712-.88-.522-2.943-.944-6.712-2.505 3.769 1.561 5.526 2.721 6.518 2.974-.991.253-2.748 1.413-6.518 2.974 3.769-1.561 5.832-1.984 6.712-2.506-.522.88-.944 2.943-2.506 6.712 1.561-3.769 2.721-5.526 2.974-6.518.253.991 1.413 2.749 2.975 6.518-1.561-3.769-1.984-5.832-2.506-6.712.88.522 2.943.944 6.712 2.505-3.769-1.561-5.527-2.721-6.518-2.974.991-.253 2.748-1.413 6.518-2.974zm-7.181 2.974zm0 0zm0 0zm0 0zM95.157 13.261l.386-2.935-2.348-1.801-2.734 1.133-.386 2.934 2.348 1.802zM69.857 23.741l.386-2.934-2.348-1.802-2.734 1.133-.387 2.934 2.349 1.802z"></path></g><g id="SvgjsG3421" featurekey="symbolFeature-0" transform="matrix(1.4173226643572632,0,0,1.4173226643572632,-0.9392513438245658,-0.7952708693051207)" fill="#0c4dc4"><path xmlns="http://www.w3.org/2000/svg" fill="#0c4dc4" d="M70.7 22.2l-6.6 52.4-13.5-12-8.5 15.1-4.1-2.3 8.5-15.1-17.1-5.4 41.3-32.7m0-4c-.9 0-1.8.3-2.5.9L26.9 51.8c-1.2.9-1.7 2.4-1.5 3.9.3 1.5 1.3 2.6 2.7 3.1l12.4 3.9-6.1 10.8c-1.1 1.9-.4 4.4 1.5 5.4l4.1 2.3c.6.3 1.3.5 2 .5.4 0 .7 0 1.1-.1 1-.3 1.9-1 2.4-1.9l6.1-10.8 9.8 8.6c.7.7 1.7 1 2.6 1 .5 0 1-.1 1.4-.3 1.4-.5 2.4-1.8 2.6-3.2l6.6-52.4c.2-1.6-.6-3.2-2-4-.5-.3-1.2-.4-1.9-.4z"></path></g><g id="SvgjsG3422" featurekey="nameFeature-0" transform="matrix(0.9680536188705949,0,0,0.9680536188705949,157.52517080649008,16.960315638037866)" fill="#0c4dc4"><path d="M28.789 27.266 l2.1875 0 c-2.1289 6.2891 -7.5586 11.23 -14.16 12.383 c-4.8633 0.68359 -10.352 0.35156 -15.293 0.35156 l2.9297 -12.734 l-2.168 0 l3.7695 -16.406 c3.9063 0 13.789 -0.60547 17.695 1.0547 c5.4102 2.3242 6.7578 8.2422 5.5078 13.516 c-0.097656 0.625 -0.25391 1.25 -0.46875 1.8359 z M14.258 18.066 l-2.1094 9.1992 l2.168 0 l-1.2695 5.4688 c4.2383 0 6.6016 -1.6016 7.9102 -5.4688 l-2.168 0 c0.21484 -0.52734 0.37109 -1.1523 0.54688 -1.8945 c1.2109 -5.0586 -0.27344 -7.3047 -5.0781 -7.3047 z M61.567195312500004 25.683999999999997 c-0.15625 0.625 -0.33203 1.25 -0.56641 1.8945 l2.1289 0 c-2.4805 7.7539 -8.7891 13.379 -17.441 13.379 c-8.9258 0 -12.402 -5.625 -11.27 -13.379 l-2.0703 0 c0.078125 -0.64453 0.17578 -1.2695 0.3125 -1.8945 c2.0703 -8.9258 8.5352 -15.313 17.93 -15.313 c9.1992 0 12.988 6.4453 10.977 15.313 z M52.9931953125 27.578 l-2.1094 0 c0.19531 -0.64453 0.39063 -1.2695 0.52734 -1.9336 c2.4805 -10.723 -6.1719 -10.41 -8.5938 0.039063 c-0.13672 0.68359 -0.23438 1.3086 -0.33203 1.8945 l2.1094 0 c-1.0156 8.1641 5.6445 7.9883 8.3984 0 z M96.963109375 27.266 l-2.9688 12.715 l-9.7656 0 l2.5586 -10.84 c-0.99609 1.5039 -1.9922 2.9883 -2.9102 4.4922 l-6.8945 0 l-0.83984 -4.5313 l-2.5586 10.879 l-9.3555 0 l2.8906 -12.715 l-1.7578 0 l3.7695 -16.367 l10.371 0 l2.1289 10.41 c2.2852 -3.4375 4.5703 -6.9141 6.9141 -10.41 l10.371 0 l-3.7695 16.367 l1.8164 0 z M139.8049375 26.719 l-2.9688 13.359 l-9.9023 0 l3.0469 -13.359 l-1.7773 0 l1.9727 -8.5547 l-7.8125 0 l1.7188 -7.4023 l25.352 0 l-1.6602 7.4023 l-7.793 0 l-1.9141 8.5547 l1.7383 0 z M175.5711015625 25.683999999999997 c-0.15625 0.625 -0.33203 1.25 -0.56641 1.8945 l2.1289 0 c-2.4805 7.7539 -8.7891 13.379 -17.441 13.379 c-8.9258 0 -12.402 -5.625 -11.27 -13.379 l-2.0703 0 c0.078125 -0.64453 0.17578 -1.2695 0.3125 -1.8945 c2.0703 -8.9258 8.5352 -15.313 17.93 -15.313 c9.1992 0 12.988 6.4453 10.977 15.313 z M166.9971015625 27.578 l-2.1094 0 c0.19531 -0.64453 0.39063 -1.2695 0.52734 -1.9336 c2.4805 -10.723 -6.1719 -10.41 -8.5938 0.039063 c-0.13672 0.68359 -0.23438 1.3086 -0.33203 1.8945 l2.1094 0 c-1.0156 8.1641 5.6445 7.9883 8.3984 0 z"></path></g><g id="SvgjsG3423" featurekey="nameFeature-1" transform="matrix(1.472582451701111,0,0,1.472582451701111,156.20886750248027,51.75538233266391)" fill="#0c4dc4"><path d="M11.348 27.266 l2.2266 0 c-0.35156 4.707 2.8516 8.2422 11.875 2.4414 l2.9297 0 l-1.8359 7.9688 c-9.9023 5.7031 -24.59 3.9844 -22.441 -10.41 l-2.207 0 c0.11719 -0.52734 0.23438 -1.1523 0.39063 -1.8359 c1.9922 -8.7305 8.6523 -15.078 17.93 -15.078 c5.1172 0 8.0664 1.4648 9.8242 2.6758 l-1.8945 8.1641 l-3.1445 0 c-7.0703 -7.6172 -13.184 0.15625 -13.652 6.0742 z M59.223445312500004 25.683999999999997 c-0.15625 0.625 -0.33203 1.25 -0.56641 1.8945 l2.1289 0 c-2.4805 7.7539 -8.7891 13.379 -17.441 13.379 c-8.9258 0 -12.402 -5.625 -11.27 -13.379 l-2.0703 0 c0.078125 -0.64453 0.17578 -1.2695 0.3125 -1.8945 c2.0703 -8.9258 8.5352 -15.313 17.93 -15.313 c9.1992 0 12.988 6.4453 10.977 15.313 z M50.6494453125 27.578 l-2.1094 0 c0.19531 -0.64453 0.39063 -1.2695 0.52734 -1.9336 c2.4805 -10.723 -6.1719 -10.41 -8.5938 0.039063 c-0.13672 0.68359 -0.23438 1.3086 -0.33203 1.8945 l2.1094 0 c-1.0156 8.1641 5.6445 7.9883 8.3984 0 z M88.857359375 27.266 l2.1875 0 c-2.1289 6.2891 -7.5586 11.23 -14.16 12.383 c-4.8633 0.68359 -10.352 0.35156 -15.293 0.35156 l2.9297 -12.734 l-2.168 0 l3.7695 -16.406 c3.9063 0 13.789 -0.60547 17.695 1.0547 c5.4102 2.3242 6.7578 8.2422 5.5078 13.516 c-0.097656 0.625 -0.25391 1.25 -0.46875 1.8359 z M74.326359375 18.066 l-2.1094 9.1992 l2.168 0 l-1.2695 5.4688 c4.2383 0 6.6016 -1.6016 7.9102 -5.4688 l-2.168 0 c0.21484 -0.52734 0.37109 -1.1523 0.54688 -1.8945 c1.2109 -5.0586 -0.27344 -7.3047 -5.0781 -7.3047 z M94.5849546875 27.344 l-1.9922 0 l3.8281 -16.484 l20.918 0 l-1.6797 7.4023 l-11.152 0 l-0.58594 2.5 l10.254 0 l-1.5039 6.582 l1.9922 0 l-0.17578 0.78125 l-10.273 0 l-1.0352 4.5703 l11.113 0 l-1.6797 7.3828 l-20.957 0 z"></path></g></svg>